<?xml version="1.0" encoding="iso-8859-1"?>
<!-- Generator: Adobe Illustrator 19.0.0, SVG Export Plug-In . SVG Version: 6.00 Build 0)  -->
<svg version="1.1" id="Capa_1" xmlns="http://www.w3.org/2000/svg" xmlns:xlink="http://www.w3.org/1999/xlink" x="0px" y="0px"
	 viewBox="0 0 512 512" style="enable-background:new 0 0 512 512;" xml:space="preserve">
<circle style="fill:#C4DF64;" cx="239.969" cy="215.922" r="208.407"/>
<path style="fill:#8AC451;" d="M264.016,400.282c-115.1,0-208.407-93.307-208.407-208.407c0-51.428,18.639-98.496,49.516-134.844
	c-45,38.228-73.563,95.22-73.563,158.891c0,115.1,93.307,208.407,208.407,208.407c63.671,0,120.664-28.563,158.891-73.563
	C362.512,381.642,315.444,400.282,264.016,400.282z"/>
<g>
	<path style="fill:#3C9FE8;" d="M280.047,143.781l-8.016,40.078l16.031,40.078l40.078,24.047L432.344,256l9.967,9.967
		c3.953-16.033,6.064-32.792,6.064-50.046c0-5.582-0.225-11.11-0.656-16.581l-31.406,8.566l-16.031-32.063l-48.094,8.016
		l8.016-48.094l52.563-36.39c-15.275-22.603-34.876-42.038-57.604-57.143c-7.051,26.346-19.006,71.849-19.006,77.501
		C336.157,127.75,280.047,143.781,280.047,143.781z"/>
	<path style="fill:#3C9FE8;" d="M199.89,296.078l64.125-32.063v-40.078l-32.063-40.078l-40.078-32.063v-48.094l-40.078-8.016
		l-56.11,16.031V65.544c-25.32,24.3-44.512,54.932-55.037,89.352l30.991-3.099l16.031,40.078l40.078,8.016L159.812,256
		l-8.016,40.078l-32.063,40.078l-44.047,8.009c22.597,28.906,52.657,51.694,87.281,65.47l44.938-49.432L199.89,296.078z"/>
</g>
<path style="fill:#C4DF64;" d="M151.796,296.078L159.812,256l-32.063-56.11l-40.078-8.016L71.64,151.796l-12.403,1.24
	c-2.373,12.585-3.628,25.564-3.628,38.838c0,56.472,22.472,107.689,58.948,145.223l5.177-0.941L151.796,296.078z"/>
<g>
	<path style="fill:#427FC9;" d="M95.687,65.544c-25.32,24.3-44.512,54.932-55.037,89.352l18.587-1.859
		c5.84-30.982,18.534-59.537,36.45-84.039V65.544z"/>
	<path style="fill:#427FC9;" d="M114.557,337.097l-38.871,7.068c22.597,28.906,52.657,51.694,87.281,65.47l22.453-24.698
		C158.541,373.982,134.464,357.58,114.557,337.097z"/>
</g>
<circle style="fill:#FF8C78;" cx="376.235" cy="400.282" r="104.204"/>
<circle style="fill:#DB6B5E;" cx="376.235" cy="400.282" r="88.172"/>
<circle style="fill:#D9DCDF;" cx="376.235" cy="400.282" r="72.141"/>
<g>
	<circle style="fill:#ECEDEF;" cx="376.235" cy="400.282" r="56.11"/>
	<polyline style="fill:#ECEDEF;" points="344.172,360.204 376.235,400.282 400.282,384.25 	"/>
</g>
<path d="M436.21,306.066c13.049-28.335,19.68-58.635,19.68-90.144c0-57.675-22.46-111.898-63.243-152.679S297.643,0,239.969,0
	S128.071,22.46,87.289,63.243s-63.243,95.005-63.243,152.679c0,9.905,0.677,19.867,2.015,29.61c0.564,4.112,4.353,6.996,8.467,6.424
	c4.112-0.564,6.988-4.354,6.424-8.467c-1.245-9.069-1.876-18.343-1.876-27.567c0-18.722,2.583-36.85,7.395-54.057l20.29-2.029
	l13.932,34.829c0.943,2.358,3.013,4.08,5.504,4.578l36.724,7.345l28.97,50.697l-7.105,35.526l-29.163,36.454l-36.814,6.693
	c-12.24-16.421-22.099-34.896-28.976-55.007c-1.343-3.927-5.614-6.021-9.542-4.679c-3.927,1.343-6.022,5.615-4.679,9.542
	c29.865,87.345,111.99,146.029,204.356,146.029c9.548,0,19.136-0.633,28.559-1.878C281.562,477.205,324.909,512,376.235,512
	c61.601,0,111.718-50.117,111.718-111.718C487.953,360.736,467.298,325.925,436.21,306.066z M439.633,193.757l-19.353,5.278
	l-13.276-26.552c-1.475-2.951-4.699-4.595-7.957-4.052l-37.717,6.286l5.763-34.583l43.508-30.121
	C426.071,134.849,436.272,163.286,439.633,193.757z M402.184,97.562l-46.258,32.025c-1.67,1.156-2.8,2.94-3.135,4.944l-8.016,48.094
	c-0.399,2.394,0.383,4.833,2.099,6.549c1.715,1.715,4.157,2.498,6.549,2.099l42.619-7.103l13.549,27.098
	c1.297,2.594,3.93,4.155,6.72,4.155c0.655,0,1.321-0.086,1.979-0.266l22.44-6.12c0.077,2.287,0.131,4.58,0.131,6.885
	c0,11.851-1.017,23.516-3.016,34.952l-0.187-0.187c-1.268-1.268-2.949-2.042-4.737-2.179l-102.435-7.879l-36.386-21.832
	l-14.262-35.654l6.687-33.436c5.299-1.59,14.645-4.488,24.104-7.866c27.67-9.882,33.001-15.38,33.042-22.029
	c0.198-3.221,4.535-22.094,15.959-65.154C375.872,66.739,390.227,81.22,402.184,97.562z M89.645,349.265l31.433-5.715
	c1.784-0.325,3.391-1.283,4.524-2.699l32.063-40.078c0.75-0.938,1.265-2.043,1.501-3.22l8.016-40.078
	c0.356-1.778,0.056-3.627-0.845-5.202l-32.063-56.11c-1.078-1.887-2.92-3.214-5.051-3.64l-36.086-7.217l-14.519-36.299
	c-1.243-3.109-4.393-5.017-7.724-4.686l-19.353,1.935c8.467-22.829,20.963-43.715,36.632-61.784v27.247c0,2.359,1.106,4.579,2.989,6
	c1.883,1.42,4.321,1.875,6.59,1.226l54.357-15.53l32.252,6.449v41.934c0,2.282,1.038,4.442,2.821,5.867l39.426,31.541l29.894,37.369
	v32.798l-59.971,29.986c-2.85,1.425-4.491,4.492-4.096,7.653l7.587,60.696l-39.041,42.946
	C133.718,388.998,109.333,371.435,89.645,349.265z M239.969,416.814c-22.158,0-43.679-3.638-63.9-10.418l37.397-41.137
	c1.476-1.623,2.169-3.81,1.897-5.987l-7.356-58.85l59.37-29.685c2.546-1.272,4.154-3.875,4.154-6.721v-40.078
	c0-1.706-0.581-3.362-1.647-4.694l-32.063-40.078c-0.347-0.434-0.74-0.828-1.173-1.173l-37.258-29.806v-44.483
	c0-3.582-2.528-6.666-6.041-7.368l-40.078-8.016c-1.173-0.233-2.387-0.185-3.538,0.143l-46.531,13.294v-32.74
	c0-0.031-0.004-0.06-0.005-0.091c35.891-33.417,83.981-53.895,136.772-53.895c39.093,0,75.606,11.236,106.501,30.631
	c-13.992,52.504-17.002,67.004-17.65,71.768c-5.625,4.377-30.056,13.187-50.837,19.126c-2.705,0.774-4.752,2.993-5.304,5.752
	l-8.016,40.078c-0.286,1.429-0.149,2.911,0.392,4.264l16.031,40.078c0.609,1.524,1.702,2.807,3.11,3.653l40.078,24.047
	c1.001,0.6,2.127,0.96,3.29,1.049l101.432,7.802l4.988,4.988c-2.809,10.423-6.468,20.627-10.984,30.57
	c-14.234-6.589-30.076-10.273-46.764-10.273c-61.601,0-111.718,50.117-111.718,111.718c0,5.058,0.345,10.037,0.999,14.919
	C257.081,416.269,248.507,416.814,239.969,416.814z M376.235,496.971c-53.314,0-96.689-43.375-96.689-96.689
	s43.375-96.689,96.689-96.689s96.689,43.375,96.689,96.689S429.549,496.971,376.235,496.971z"/>
<path d="M396.114,377.998l-18.315,12.21L350.04,355.51c-2.593-3.241-7.323-3.767-10.563-1.173c-3.24,2.592-3.766,7.321-1.173,10.563
	l32.063,40.078c2.403,3.004,6.832,3.694,10.037,1.558l24.047-16.031c3.454-2.301,4.387-6.968,2.084-10.42
	C404.233,376.629,399.566,375.696,396.114,377.998z"/>
<path d="M455.634,406.379c0.153-2.015,0.257-4.044,0.257-6.097c0-43.922-35.734-79.656-79.656-79.656s-79.656,35.734-79.656,79.656
	c0,2.053,0.103,4.082,0.257,6.097c-0.162,0.613-0.257,1.254-0.257,1.919c0,1.237,0.305,2.402,0.835,3.432
	c5.569,38.516,38.787,68.208,78.821,68.208s73.252-29.692,78.821-68.208c0.53-1.029,0.835-2.194,0.835-3.432
	C455.89,407.633,455.795,406.992,455.634,406.379z M383.75,464.457v-8.066c0-4.15-3.365-7.515-7.515-7.515s-7.515,3.365-7.515,7.515
	v8.066c-26.912-3.132-48.824-22.853-55.213-48.645h6.618c4.15,0,7.515-3.365,7.515-7.515s-3.365-7.515-7.515-7.515h-8.504
	c-0.001-0.167-0.013-0.333-0.013-0.501c0-33.092,25.006-60.438,57.112-64.175v8.066c0,4.15,3.365,7.515,7.515,7.515
	s7.515-3.365,7.515-7.515v-8.066c32.106,3.737,57.112,31.084,57.112,64.175c0,0.168-0.011,0.334-0.013,0.501h-8.504
	c-4.15,0-7.515,3.365-7.515,7.515s3.365,7.515,7.515,7.515h6.618C432.574,441.605,410.661,461.325,383.75,464.457z"/>
<g>
</g>
<g>
</g>
<g>
</g>
<g>
</g>
<g>
</g>
<g>
</g>
<g>
</g>
<g>
</g>
<g>
</g>
<g>
</g>
<g>
</g>
<g>
</g>
<g>
</g>
<g>
</g>
<g>
</g>
</svg>
